<svg xmlns="http://www.w3.org/2000/svg" viewBox="0 0 520 200" width="520" height="200" role="img" aria-label="Legios">
  
  <defs><linearGradient id="wg_bright" x1="0" y1="0" x2="1" y2="0"><stop offset="0" stop-color="#7DEBF6"></stop><stop offset="0.5" stop-color="#3FB7F0"></stop><stop offset="1" stop-color="#1F6FF0"></stop></linearGradient></defs>
  <g transform="translate(40,30) scale(1.1666666666666667)"><defs><linearGradient id="ig_bright" x1="18%" y1="12%" x2="86%" y2="92%"><stop offset="0" stop-color="#5BE6F2"></stop><stop offset="1" stop-color="#1F6FF0"></stop></linearGradient>
    <mask id="m1_bright"><rect width="120" height="120" fill="#fff"></rect><ellipse cx="60" cy="60" rx="43.5" ry="16.5" transform="rotate(60 60 60)" fill="none" stroke="#000" stroke-width="15.7"></ellipse><ellipse cx="60" cy="60" rx="43.5" ry="16.5" transform="rotate(120 60 60)" fill="none" stroke="#000" stroke-width="15.7"></ellipse></mask>
    <mask id="m2_bright"><rect width="120" height="120" fill="#fff"></rect><ellipse cx="60" cy="60" rx="43.5" ry="16.5" transform="rotate(120 60 60)" fill="none" stroke="#000" stroke-width="15.7"></ellipse></mask></defs>
    <circle cx="60" cy="60" r="53" fill="none" stroke="#3FB7F0" stroke-width="5.5"></circle>
    <polygon points="60.00,71.60 49.95,65.80 49.95,54.20 60.00,48.40 70.05,54.20 70.05,65.80" fill="none" stroke="url(#ig_bright)" stroke-width="2" stroke-linejoin="round" opacity="0.6"></polygon>
    <ellipse cx="60" cy="60" rx="43.5" ry="16.5" transform="rotate(0 60 60)" fill="none" stroke="url(#ig_bright)" stroke-width="10.5" stroke-linecap="round" mask="url(#m1_bright)"></ellipse>
    <ellipse cx="60" cy="60" rx="43.5" ry="16.5" transform="rotate(60 60 60)" fill="none" stroke="url(#ig_bright)" stroke-width="10.5" stroke-linecap="round" mask="url(#m2_bright)"></ellipse>
    <ellipse cx="60" cy="60" rx="43.5" ry="16.5" transform="rotate(120 60 60)" fill="none" stroke="url(#ig_bright)" stroke-width="10.5" stroke-linecap="round"></ellipse>
    <circle cx="60" cy="60" r="6.8" fill="#7DEBF6"></circle></g>
  <text x="210" y="104" dominant-baseline="central" font-size="78" class="wm" fill="url(#wg_bright)">
    <tspan font-weight="800">Legios</tspan>
  </text>
  </svg>